<svg width="16" height="10" viewBox="0 0 16 10" fill="none" xmlns="http://www.w3.org/2000/svg">
<path d="M4.6665 6C5.77317 6 6.6665 5.10667 6.6665 4C6.6665 2.89333 5.77317 2 4.6665 2C3.55984 2 2.6665 2.89333 2.6665 4C2.6665 5.10667 3.55984 6 4.6665 6ZM4.6665 3.33333C5.03317 3.33333 5.33317 3.63333 5.33317 4C5.33317 4.36667 5.03317 4.66667 4.6665 4.66667C4.29984 4.66667 3.99984 4.36667 3.99984 4C3.99984 3.63333 4.29984 3.33333 4.6665 3.33333ZM12.6665 1.33333H7.33317V6.66667H1.99984V0H0.666504V10H1.99984V8H13.9998V10H15.3332V4C15.3332 2.52667 14.1398 1.33333 12.6665 1.33333ZM13.9998 6.66667H8.6665V2.66667H12.6665C13.3998 2.66667 13.9998 3.26667 13.9998 4V6.66667Z" fill="#939394"/>
</svg>
